<?xml version="1.0" encoding="UTF-8"?>
<svg width="24px" height="53px" viewBox="0 0 24 53" version="1.1" xmlns="http://www.w3.org/2000/svg" xmlns:xlink="http://www.w3.org/1999/xlink">
    <!-- Generator: Sketch 61.1 (89650) - https://sketch.com -->
    <title>Shape</title>
    <desc>Created with Sketch.</desc>
    <g id="Page-1" stroke="none" stroke-width="1" fill="none" fill-rule="evenodd">
        <g id="index" fill="#FFFFFF" fill-rule="nonzero">
            <path d="M15.2897143,15.1005714 L23.2285714,6.11771429 C23.58,5.70885714 23.5894286,5.09257143 23.2191429,4.67428571 C22.8188571,4.23714286 22.1357143,4.20971429 21.69,4.60742857 L14.8911429,10.7882857 L16.7237143,1.35028571 C16.8377143,0.790571429 16.506,0.23 15.9462857,0.0594285714 C15.348,-0.120571429 14.7205714,0.220571429 14.5397143,0.809428571 L11.9288571,9.49742857 L9.30771429,0.809428571 C9.12685714,0.220571429 8.50114286,-0.121428571 7.902,0.0594285714 C7.34228571,0.23 7.00971429,0.790571429 7.12371429,1.35028571 L8.92714286,10.6177143 L2.30914286,4.60742857 C1.86257143,4.20885714 1.18885714,4.23714286 0.78,4.67428571 C0.409714286,5.09171429 0.419142857,5.70885714 0.78,6.11771429 L8.70942857,15.0997143 C4.26428571,16.3622857 0.884571429,20.1414286 0.192,24.794 C0.0968571429,25.3734286 0.0488571429,25.9717143 0.0488571429,26.5794286 L0.0488571429,40.31 C0.0488571429,40.4711429 0.0488571429,40.6897143 0.078,40.9271429 L0.0488571429,40.9271429 C0.0488571429,41.354 0.0668571429,41.7817143 0.125142857,42.2094286 C0.751714286,48.2 5.83114286,52.8817143 11.994,52.8817143 C18.1568571,52.8817143 23.2268571,48.2102857 23.8722857,42.2282857 C23.9297143,41.8014286 23.9485714,41.3642857 23.9485714,40.928 L23.9485714,26.5794286 C23.9485714,25.9622857 23.9005714,25.3648571 23.8054286,24.776 C23.1042857,20.1328571 19.7245714,16.3725714 15.2897143,15.1005714 M21.1011429,26.5794286 L21.1011429,27.482 L20.9305714,27.662 L17.8062857,24.5377143 L20.028,22.3065714 C20.7111429,23.5794286 21.1011429,25.0322857 21.1011429,26.5794286 Z M13.3431429,29.0008571 L16.4674286,25.8765714 L19.5917143,29.0008571 L16.4674286,32.1251429 L13.3431429,29.0008571 Z M15.1191429,33.4734286 L11.9948571,36.5977143 L8.87057143,33.4734286 L11.9948571,30.3491429 L15.1191429,33.4734286 Z M12.0051429,27.662 L8.88085714,24.5377143 L12.0051429,21.4134286 L15.1294286,24.5377143 L12.0051429,27.662 Z M10.6568571,29.0102857 L7.53257143,32.1251429 L4.40828571,29.0008571 L7.53257143,25.886 L10.6568571,29.0102857 Z M10.6568571,37.9357143 L7.53257143,41.0591429 L4.40828571,37.9357143 L7.53257143,34.8114286 L10.6568571,37.9357143 Z M12.0051429,39.2848571 L15.1294286,42.4091429 L12.0051429,45.5334286 L8.88085714,42.4091429 L12.0051429,39.2848571 Z M13.3431429,37.9357143 L16.4674286,34.8217143 L19.5917143,37.946 L16.4674286,41.06 L13.3431429,37.9357143 Z M17.8157143,33.4734286 L20.94,30.3491429 L21.1011429,30.5102857 L21.1011429,36.4254286 L20.94,36.596 L17.8157143,33.4734286 Z M15.2991429,18.11 C16.7237143,18.6611429 17.9777143,19.5628571 18.9462857,20.7122857 L16.4674286,23.1997143 L13.3431429,20.0754286 L15.2991429,18.11 Z M11.9948571,17.4834286 C12.3942857,17.4834286 12.7834286,17.5117143 13.1622857,17.5588571 L11.9948571,18.7271429 L10.8274286,17.5588571 C11.2071429,17.5117143 11.5962857,17.4834286 11.9948571,17.4834286 Z M8.69057143,18.1005714 L10.6568571,20.066 L7.53257143,23.1902857 L5.05371429,20.7122857 C6.02228571,19.5628571 7.26685714,18.6611429 8.69057143,18.1005714 Z M2.89885714,26.5794286 C2.89885714,25.0417143 3.28885714,23.5888571 3.96257143,22.316 L6.18428571,24.5377143 L3.06,27.662 L2.89885714,27.5008571 L2.89885714,26.5794286 L2.89885714,26.5794286 Z M2.89885714,30.5111429 L3.06942857,30.35 L6.19371429,33.4742857 L3.06942857,36.5985714 L2.89885714,36.428 L2.89885714,30.5111429 Z M2.89885714,40.9271429 L2.89885714,39.4357143 L3.06,39.2745714 L6.19285714,42.4082857 L3.78171429,44.8194286 C3.21257143,43.6425714 2.89885714,42.3225714 2.89885714,40.9271429 Z M4.79828571,46.4822857 L7.53257143,43.7471429 L10.6568571,46.8714286 L8.28257143,49.2457143 C6.906,48.6182857 5.70942857,47.6685714 4.79828571,46.4822857 Z M11.9948571,50.0325714 C11.4248571,50.0325714 10.8651429,49.976 10.3242857,49.8808571 L11.9948571,48.2094286 L13.6662857,49.8808571 C13.1245714,49.976 12.5648571,50.0325714 11.9948571,50.0325714 Z M15.7174286,49.2448571 L13.3431429,46.8705714 L16.4674286,43.7462857 L19.2017143,46.4814286 C18.2905714,47.6685714 17.094,48.6182857 15.7174286,49.2448571 Z M21.1011429,40.9271429 C21.1011429,42.3225714 20.7874286,43.6425714 20.2268571,44.8202857 L17.8062857,42.3988571 L20.9305714,39.2848571 L21.1011429,39.4554286 L21.1011429,40.3108571 C21.1011429,40.472 21.1011429,40.6905714 21.1294286,40.928 L21.1011429,40.928 L21.1011429,40.9271429 Z" id="Shape"></path>
        </g>
    </g>
</svg>